<svg width="42" height="42" viewBox="0 0 42 42" fill="none" xmlns="http://www.w3.org/2000/svg">
<circle cx="20.5" cy="20.5" r="17.5" fill="white"/>
<path d="M20.8332 4.16602C29.3332 4.16602 36.3541 10.5202 37.3749 18.7493H28.9166C27.9791 15.1452 24.7082 12.4993 20.8332 12.4993C16.9582 12.4993 13.6874 15.1452 12.7707 18.7493H4.2915C5.31234 10.5202 12.3332 4.16602 20.8332 4.16602Z" fill="#FF6568"/>
<path d="M20.8333 0C9.33335 0 0 9.33331 0 20.8333C0 32.3333 9.33335 41.6667 20.8333 41.6667C32.3333 41.6667 41.6666 32.3333 41.6666 20.8333C41.6666 9.33331 32.3333 0 20.8333 0ZM20.8333 4.16667C29.3333 4.16667 36.3542 10.5208 37.3751 18.75H28.9167C27.9792 15.1458 24.7083 12.5 20.8333 12.5C16.9583 12.5 13.6874 15.1458 12.7708 18.75H4.29167C5.3125 10.5208 12.3333 4.16667 20.8333 4.16667ZM25 20.8333C25 23.125 23.1249 25 20.8333 25C18.5416 25 16.6667 23.125 16.6667 20.8333C16.6667 18.5417 18.5416 16.6667 20.8333 16.6667C23.1249 16.6667 25 18.5417 25 20.8333ZM20.8333 37.5C12.3333 37.5 5.3125 31.1458 4.29167 22.9167H12.75C13.6667 26.5208 16.9375 29.1667 20.8125 29.1667C24.6875 29.1667 27.9583 26.5208 28.8749 22.9167H37.3334C36.3542 31.1458 29.3333 37.5 20.8333 37.5Z" fill="black"/>
</svg>
