<svg width="60" height="60" viewBox="0 0 60 60" fill="none" xmlns="http://www.w3.org/2000/svg">
    <path fill-rule="evenodd" clip-rule="evenodd"
        d="M40.0897 0.0587445C40.1334 -0.00356688 40.2192 -0.0187102 40.2815 0.0249208L44.5418 3.00804C44.6042 3.05167 44.6193 3.13755 44.5757 3.19985L38.646 11.6682C41.5288 12.5892 43.4927 13.5826 43.4927 13.5826C43.4927 13.5826 38.6922 21.84 30.55 21.84C22.4078 21.84 16.622 14.1439 16.622 14.1439C16.622 14.1439 18.6736 12.8347 21.7146 11.7118L15.2106 3.96072C15.1617 3.90244 15.1694 3.81557 15.2276 3.76668L19.2117 0.423598C19.2701 0.374704 19.3569 0.382303 19.4058 0.440576L27.6409 10.2548C28.346 10.1751 29.0644 10.1305 29.7893 10.1305C30.8313 10.1305 31.8719 10.2097 32.8878 10.3441L40.0897 0.0587445ZM41.7006 22.2311C43.8734 20.6792 47.1612 16.6289 47.1612 16.6289C47.1612 16.6289 55.5595 23.2841 55.5595 37.3956C55.5595 51.5069 41.0402 60 41.0402 60C41.0402 60 34.1032 52.9943 32.4002 44.1136C30.6973 35.2329 34.9193 25.3718 34.9193 25.3718C34.9193 25.3718 39.5276 23.7829 41.7006 22.2311V22.2311ZM18.2998 22.2311C16.127 20.6792 12.8392 16.6289 12.8392 16.6289C12.8392 16.6289 4.44092 23.2841 4.44092 37.3956C4.44092 51.5069 18.9602 60 18.9602 60C18.9602 60 25.8972 52.9943 27.6002 44.1136C29.3031 35.2329 25.0811 25.3718 25.0811 25.3718C25.0811 25.3718 20.4728 23.7829 18.2998 22.2311V22.2311Z"
        fill="currentColor" />
</svg>