<svg width="60" height="60" viewBox="0 0 60 60" fill="none" xmlns="http://www.w3.org/2000/svg">
    <path fill-rule="evenodd" clip-rule="evenodd"
        d="M26.9206 53.0684C28.0605 53.2429 29.2279 53.3333 30.4167 53.3333C43.0732 53.3333 53.3333 43.0732 53.3333 30.4167C53.3333 17.7601 43.0732 7.5 30.4167 7.5C29.5675 7.5 28.7291 7.54618 27.904 7.63618C34.1823 12.3927 38.3333 20.6323 38.3333 30C38.3333 39.8484 33.7453 48.45 26.9206 53.0684ZM30 60C46.5685 60 60 46.5686 60 30C60 13.4314 46.5685 0 30 0C13.4314 0 0 13.4314 0 30C0 46.5686 13.4314 60 30 60Z"
        fill="currentColor" />
</svg>