<svg width="60" height="60" viewBox="0 0 60 60" fill="none" xmlns="http://www.w3.org/2000/svg">
    <path fill-rule="evenodd" clip-rule="evenodd"
        d="M32.9106 29.8689C33.3173 29.6209 33.6623 29.1013 33.9405 28.5238C37.602 30.0203 40.1751 33.5565 40.1751 37.6805C40.1751 43.159 35.6341 47.6003 30.0325 47.6003C27.7331 47.6003 25.6123 46.8518 23.9111 45.5905C23.3531 45.3263 22.8939 45.0724 22.5182 44.8647C21.9354 44.5425 21.5533 44.3312 21.314 44.3643C20.6145 44.4607 20.8176 45.1043 21.0022 45.6889C21.1274 46.0861 21.2443 46.4561 21.0635 46.6086C20.8743 46.7685 20.2617 46.1843 19.5458 45.5018C18.5712 44.5726 17.4054 43.4611 16.8557 43.795C16.4211 44.059 16.8431 44.7751 17.3596 45.6517L17.3979 45.7167C17.6161 46.0873 17.869 46.4646 18.0998 46.8089C18.5689 47.5086 18.9467 48.0725 18.7577 48.1679C18.5292 48.2832 16.937 47.2086 15.5954 45.7167C15.0775 45.141 14.5759 44.5168 14.1098 43.9369V43.9368C13.0894 42.6672 12.2393 41.6095 11.7622 41.7348C11.1881 41.8855 11.6224 43.0696 12.2604 44.209C12.5588 44.7418 12.9098 45.2844 13.2136 45.7542V45.7543C13.6863 46.4849 14.045 47.0393 13.9149 47.1075C13.7393 47.1993 12.1947 45.6931 11.1456 43.795C10.5224 42.6675 9.99918 41.4216 9.57557 40.4129C9.11618 39.319 8.77398 38.5042 8.54866 38.4221C7.76577 38.1373 7.76577 39.7335 8.07976 42.0373C8.12072 42.3379 8.18172 42.6531 8.25682 42.9741C11.3018 52.8264 20.6559 60 31.7229 60C45.2601 60 56.234 49.267 56.234 36.0272C56.234 23.4258 46.2931 13.0954 33.6627 12.1282C33.6787 11.5346 33.9885 10.3574 33.9885 10.3574C33.9885 10.3574 36.2183 4.96256 36.3361 3.80975C36.3439 3.73324 36.3531 3.6501 36.3631 3.56155C36.502 2.31596 36.7604 0 34.7679 0C33.7039 0 33.2091 0.791559 32.6432 1.69686V1.69688C32.426 2.04442 32.1981 2.40873 31.9237 2.75145C29.947 5.21995 26.6231 8.30259 24.7383 9.94489C20.7547 13.4161 16.8462 16.2689 14.5667 17.9327L14.5666 17.9329C13.5298 18.6895 12.8301 19.2004 12.6135 19.4114C10.9816 21.0023 5.13014 31.557 5.13014 31.557C5.13014 31.557 3.23786 34.9432 3.91046 35.63C4.58305 36.3168 6.20502 36.1594 6.20502 36.1594C6.20502 36.1594 27.995 31.1605 29.9458 30.7663C30.471 30.6601 30.8418 30.5988 31.1265 30.5518C31.8993 30.4242 32.0381 30.4013 32.9106 29.8689ZM17.5043 23.445C16.3347 24.5568 14.3949 27.2105 14.3949 27.2105C14.3949 27.2105 18.0001 27.4325 19.9856 25.5452C21.9712 23.6578 21.5163 20.4414 21.5163 20.4414C21.5163 20.4414 18.6739 22.3332 17.5043 23.445Z"
        fill="currentColor" />
</svg>