<svg width="60" height="60" viewBox="0 0 60 60" fill="none" xmlns="http://www.w3.org/2000/svg">
    <path fill-rule="evenodd" clip-rule="evenodd"
        d="M12.0386 47.5771L21.6626 44.7866L29.975 59.9852C29.9859 60.0049 30.0141 60.0049 30.0249 59.9852L38.3373 44.7866L47.9614 47.5771C47.983 47.5833 48.003 47.5633 47.9966 47.5417L45.2055 38.1082L59.9851 30.0249C60.0049 30.0141 60.0049 29.9859 59.9852 29.9751L45.0838 21.8251L47.9966 11.9799C48.003 11.9583 47.983 11.9383 47.9614 11.9445L38.1116 14.8006L30.0249 0.0147882C30.0141 -0.00492903 29.9859 -0.00492958 29.9751 0.0147877L21.8884 14.8006L12.0386 11.9445C12.017 11.9383 11.997 11.9583 12.0034 11.9799L14.9162 21.8251L0.0147882 29.9751C-0.00492903 29.9859 -0.00492958 30.0141 0.0147877 30.0249L14.7944 38.1082L12.0034 47.5417C11.997 47.5633 12.017 47.5833 12.0386 47.5771ZM19.5067 30.1037L26.3248 33.8326L30.0537 40.6505C30.0645 40.6703 30.0929 40.6703 30.1037 40.6505L33.8326 33.8326L40.6505 30.1037C40.6702 30.0929 40.6702 30.0645 40.6505 30.0537L33.8326 26.3248L30.1037 19.5069C30.0929 19.4871 30.0645 19.4871 30.0537 19.5069L26.3248 26.3248L19.5067 30.0537C19.4871 30.0645 19.4871 30.0929 19.5067 30.1037Z"
        fill="currentColor" />
</svg>