<svg width="60" height="60" viewBox="0 0 60 60" fill="none" xmlns="http://www.w3.org/2000/svg">
    <path fill-rule="evenodd" clip-rule="evenodd"
        d="M10.3474 4.98816C11.0736 2.12126 13.6708 0 16.7634 0C19.0831 0 21.1242 1.19352 22.3059 3H24.241C25.4432 1.7662 27.1229 1 28.9816 1C31.7067 1 34.0471 2.64705 35.0617 5H36.6819C37.6971 4.36623 38.8966 4 40.1816 4C42.9067 4 45.2471 5.64706 46.2617 8H50.6674C50.705 8 50.7403 8.01014 50.7706 8.02782C50.9718 8.00941 51.1756 8 51.3815 8C55.0367 8 57.9997 10.9631 57.9997 14.6182V34.4632L57.9998 34.5L57.9997 34.5368V34.8226C57.9997 34.9437 57.9964 35.0643 57.9898 35.1843C57.5916 48.9512 45.2125 60 29.9997 60C14.5358 60 1.99976 48.5832 1.99976 34.5C1.99976 27.7021 4.92064 21.5254 9.68181 16.9541C9.66994 23.5814 9.78187 30.4329 10.2979 30.3154C11.6796 30.0004 10.6 9.47338 10.3474 4.98816Z"
        fill="currentColor" />
</svg>