<svg width="60" height="60" viewBox="0 0 60 60" fill="none" xmlns="http://www.w3.org/2000/svg">
    <path fill-rule="evenodd" clip-rule="evenodd"
        d="M41.3003 46.3353C42.0416 43.6246 40.6027 38.052 40.6027 38.052C40.6027 38.052 39.559 42.5917 37.9282 44.2696C36.537 45.7008 34.8325 46.6935 32.3879 46.9544C34.3866 45.9836 35.7611 43.9594 35.7611 41.6197C35.7611 38.3354 33.0526 35.6729 29.7116 35.6729C26.3706 35.6729 23.662 38.3354 23.662 41.6197C23.662 42.5167 23.8642 43.3674 24.2259 44.13C22.1363 42.4653 21.8077 39.7962 21.8077 39.7962C21.8077 39.7962 19.4742 49.4841 25.9038 54.0413C32.3333 58.5985 44.9285 54.6814 44.9285 54.6814C44.9285 54.6814 26.904 67.3637 13.5477 53.5606C2.04231 41.67 10.5448 26.016 10.5448 26.016C10.5448 26.016 10.1776 27.4682 10.1776 29.1539C10.1776 30.8397 11.0916 32.1223 11.0916 32.1223C11.0916 32.1223 13.8179 26.3755 15.9397 24.0385C17.9479 21.8267 20.4652 20.0327 22.6395 18.4833C24.3131 17.2906 25.7836 16.2427 26.6618 15.2605C31.499 9.85181 28.5331 0 28.5331 0C28.5331 0 33.9858 4.80703 35.5081 11.0154C36.0884 13.3819 35.715 16.0745 35.3813 18.4824C34.8394 22.3913 34.4015 25.5498 38.3161 25.3449C44.6421 25.0136 39.145 15.2605 39.145 15.2605C39.145 15.2605 53.4948 22.8027 52.4228 35.9936C51.3506 49.1844 36.7377 52.1833 36.7377 52.1833C36.7377 52.1833 40.5588 49.0459 41.3003 46.3353Z"
        fill="currentColor" />
</svg>