<svg width="60" height="60" viewBox="0 0 60 60" fill="none" xmlns="http://www.w3.org/2000/svg">
    <path fill-rule="evenodd" clip-rule="evenodd"
        d="M20.9429 56.001C29.7323 56.001 37.2571 51.1161 40.3637 44.1912C40.4016 44.1067 27.8915 47.4424 28.2904 46.2632C28.4685 45.7367 36.1373 42.9352 41.7245 39.6675C44.9358 37.7894 46.4145 33.8135 46.4145 33.8135C46.4145 33.8135 41.0043 36.4403 38.2693 37.1066C32.7577 38.4496 27.906 38.305 27.906 38.1651C27.906 37.8625 35.9621 36.3318 47.1592 29.5085C52.4259 26.2991 53.8564 20.7709 53.8564 20.7709C53.8564 20.7709 48.0661 24.22 44.5657 25.3587C36.2646 28.059 28.6893 28.8728 28.6893 28.5074C28.6893 27.7251 35.3558 25.8919 42.4238 22.4671C46.0988 20.6864 49.2815 18.36 52.9698 15.7728C59.0047 11.5399 60 4.00098 60 4.00098C60 4.00098 54.0478 7.84006 51.1431 9.11498C39.1572 14.3757 28.5738 17.1353 20.9429 17.7327C9.42377 18.6346 0 26.6717 0 37.1066C0 47.5417 9.37641 56.001 20.9429 56.001Z"
        fill="currentColor" />
</svg>