<svg width="60" height="60" viewBox="0 0 60 60" fill="none" xmlns="http://www.w3.org/2000/svg">
    <g clip-path="url(#clip0_2124_2475)">
        <path fill-rule="evenodd" clip-rule="evenodd"
            d="M43.2366 59.7922C37.8245 60.0693 31.6284 60.0693 29.5228 59.7922C13.098 57.6314 0 45.6226 0 29.3906C0 13.1586 13.4314 0 30 0C46.5686 0 60 13.1586 60 29.3906C60 36.94 57.0946 43.8245 52.3195 49.0297C51.0229 50.4431 52.802 51.4345 54.6096 52.4419C56.3824 53.4299 58.1827 54.4331 57.1364 55.8647C55.9835 57.4422 49.7334 59.4597 43.2366 59.7922ZM25.7813 25.7168C25.7813 28.253 23.6825 30.309 21.0938 30.309C18.505 30.309 16.4063 28.253 16.4063 25.7168C16.4063 24.0158 17.3502 22.5309 18.7528 21.7372C18.8336 23.9487 20.6518 25.7167 22.8831 25.7167H25.7813V25.7168ZM40.3097 21.7372C40.2289 23.9487 38.4107 25.7167 36.1794 25.7167H33.2813V25.7168C33.2813 28.253 35.38 30.309 37.9688 30.309C40.5575 30.309 42.6563 28.253 42.6563 25.7168C42.6563 24.0158 41.7123 22.5309 40.3097 21.7372Z"
            fill="currentColor" />
    </g>
    <defs>
        <clipPath id="clip0_2124_2475">
            <rect width="60" height="60" fill="none" />
        </clipPath>
    </defs>
</svg>