<svg width="60" height="60" viewBox="0 0 60 60" fill="none" xmlns="http://www.w3.org/2000/svg">
    <path fill-rule="evenodd" clip-rule="evenodd"
        d="M11.1585 52.3403C10.9447 52.1392 10.7333 51.9342 10.5243 51.7252C-0.508745 40.6922 -0.508744 22.8041 10.5243 11.7712C21.5573 0.738098 56.7127 0 56.7127 0C56.7127 0 61.5114 40.6922 50.4784 51.7252C40.6796 61.524 25.4739 62.6202 14.4653 55.0139L23.3356 44.1285L37.5155 41.0671L25.9406 39.9099L33.2966 32.4201L41.67 30.5857L35.0488 28.6249L41.67 16.6804L32.252 27.2442L28.6151 22.1121L29.8954 30.5857L23.3356 37.9807L20.2949 28.6248V41.0671L11.1585 52.3403Z"
        fill="currentColor" />
</svg>