<svg width="60" height="60" viewBox="0 0 60 60" fill="none" xmlns="http://www.w3.org/2000/svg">
    <path fill-rule="evenodd" clip-rule="evenodd"
        d="M13.2146 51.5807C13.1983 51.5807 13.1869 51.5646 13.1923 51.5493L28.5105 8.2657C28.5139 8.25629 28.5228 8.25 28.5328 8.25H44.8854C44.8954 8.25 44.9044 8.25634 44.9077 8.26581L59.9987 51.5494C60.004 51.5648 59.9926 51.5807 59.9764 51.5807H13.6749H13.2146ZM0.0235906 51.75C0.00713818 51.75 -0.00425218 51.7336 0.00151884 51.7183L11.4085 21.2644C11.412 21.2552 11.4208 21.2491 11.4306 21.2491H21.342C21.3584 21.2491 21.3698 21.2654 21.3642 21.2807L10.3339 51.7346C10.3305 51.7438 10.3217 51.75 10.3117 51.75H0.0235906Z"
        fill="currentColor" />
</svg>