<svg width="60" height="60" viewBox="0 0 60 60" fill="none" xmlns="http://www.w3.org/2000/svg">
    <path d="M29.1067 11.1607L14.2047 3.78027L14.6554 20.2757L28.7257 27.2441L29.1067 11.1607Z" fill="currentColor" />
    <path d="M45.6508 20.4766L45.4615 3.84815L30.9685 11.7385L31.1474 27.4389L45.6508 20.4766Z" fill="currentColor" />
    <path d="M45.6426 38.2627L60 30.0505L45.6351 22.4953L31.2766 30.0375L45.6426 38.2627Z" fill="currentColor" />
    <path d="M28.7234 30.0505L14.366 38.2627L0 30.0375L14.3585 22.4953L28.7234 30.0505Z" fill="currentColor" />
    <path d="M45.8671 56.0693L30.9651 48.6888L31.3461 32.6052L45.4164 39.5738L45.8671 56.0693Z" fill="currentColor" />
    <path d="M14.5299 39.591L14.7193 56.2194L29.2123 48.329L29.0335 32.6287L14.5299 39.591Z" fill="currentColor" />
</svg>