<svg width="60" height="60" viewBox="0 0 60 60" fill="none" xmlns="http://www.w3.org/2000/svg">
    <g clip-path="url(#clip0_2124_3396)">
        <path fill-rule="evenodd" clip-rule="evenodd"
            d="M50.1353 46.1073C56.1942 41.2627 60 34.2628 60 26.4785C60 11.8548 46.5686 0 30 0C13.4314 0 0 11.8548 0 26.4785C0 33.9818 3.53598 40.7562 9.21742 45.5743C8.8731 46.7632 8.6842 48.0564 8.6842 49.4086C8.6842 55.258 12.2188 60 16.579 60C19.4121 60 21.8967 57.9979 23.2895 54.9907C24.6823 57.9979 27.1669 60 30 60C32.5826 60 34.8755 58.3364 36.3158 55.7645C37.7562 58.3364 40.0491 60 42.6315 60C46.9917 60 50.5263 55.258 50.5263 49.4086C50.5263 48.2559 50.389 47.1462 50.1353 46.1073ZM47.3685 27.0036C47.3685 34.4279 39.4155 40.4466 29.6053 40.4466C19.795 40.4466 11.8421 34.4279 11.8421 27.0036C11.8421 19.5793 19.795 13.5607 29.6053 13.5607C39.4155 13.5607 47.3685 19.5793 47.3685 27.0036Z"
            fill="currentColor" />
    </g>
    <defs>
        <clipPath id="clip0_2124_3396">
            <rect width="60" height="60" fill="none" />
        </clipPath>
    </defs>
</svg>