<svg width="60" height="60" viewBox="0 0 60 60" fill="none" xmlns="http://www.w3.org/2000/svg">
    <path fill-rule="evenodd" clip-rule="evenodd"
        d="M53.4648 49.8316C53.4648 49.8316 45.8983 55.9002 30.8414 53.3889C19.4179 51.4836 13.3251 38.8909 13.3251 32.1221C13.3251 16.0739 25.2029 12.4218 33.2331 12.4218C41.2632 12.4218 46.5017 20.2508 46.5017 26.3124C46.5017 32.374 42.2145 37.6759 35.5426 37.6759C28.8709 37.6759 26.8949 32.992 26.8949 28.6857C26.8949 24.3795 30.3789 22.8624 33.5563 22.8624C36.7338 22.8624 37.8217 25.5751 37.8217 27.9065C37.8217 30.2381 36.0127 31.0731 34.5039 31.0731C32.9951 31.0731 32.8459 30.3118 32.2684 29.5118C31.6909 28.7119 33.0049 25.684 30.8414 25.684C28.6779 25.684 28.2746 29.1649 28.2746 29.1649C28.2746 29.1649 29.0634 35.8844 35.5426 35.7684C42.0221 35.6524 45.0959 30.6433 44.2026 25.684C43.3093 20.7245 38.4962 15.4546 30.0491 16.5195C21.602 17.5844 18.1532 26.1194 19.6734 35.2403C21.1936 44.3614 32.1205 49.6462 40.7119 47.7449C49.3034 45.8436 57.8603 39.6237 57.8603 23.8541C57.8603 8.08434 44.2026 -1.3947 27.917 0.167496C11.6315 1.72969 1.52213 15.9676 2.16921 33.0747C2.8163 50.1818 19.0489 59.4989 32.7753 59.9791C46.5017 60.4594 54.9165 52.5135 54.9165 52.5135C54.9165 52.5135 56.809 50.826 56.067 49.5082C55.3251 48.1904 53.4648 49.8316 53.4648 49.8316Z"
        fill="currentColor" />
</svg>