<svg width="60" height="60" viewBox="0 0 60 60" fill="none" xmlns="http://www.w3.org/2000/svg">
    <path fill-rule="evenodd" clip-rule="evenodd"
        d="M46.3266 28.7369C46.3232 28.7322 46.3218 28.7264 46.3227 28.7206L50.1426 6.44646C50.1444 6.43621 50.1534 6.42871 50.1637 6.42871H51.3726C51.382 6.42871 51.3902 6.43476 51.393 6.44364L59.999 33.6923C60.0017 33.7008 59.9988 33.7101 59.9918 33.7156L53.6464 38.6698C53.6369 38.6771 53.6233 38.6753 53.6161 38.6656L46.3266 28.7369ZM0 43.503C0 43.5122 0.00594036 43.5204 0.0147224 43.5234L13.095 47.8002C13.1013 47.8023 13.1083 47.8012 13.1138 47.7975L42.3512 27.6127C42.3561 27.6093 42.3594 27.604 42.3602 27.5982L45.4956 6.56067C45.4975 6.54776 45.4875 6.53616 45.4745 6.53616H19.5774C19.571 6.53616 19.565 6.53899 19.5609 6.54389L0.00491475 30.1352C0.00173781 30.1391 0 30.1439 0 30.1489V43.503ZM18.5456 48.8899L32.8355 53.5708C32.8419 53.573 32.8491 53.5719 32.8546 53.5679L49.8677 41.3643C49.8771 41.3576 49.8795 41.3447 49.8731 41.3351L43.4953 31.8444C43.4886 31.8344 43.4753 31.8318 43.4655 31.8386L18.5456 48.8899Z"
        fill="currentColor" />
</svg>