<svg width="60" height="60" viewBox="0 0 60 60" fill="none" xmlns="http://www.w3.org/2000/svg">
    <path fill-rule="evenodd" clip-rule="evenodd"
        d="M0.00598954 30.0364C-0.00199273 30.0228 -0.00199674 30.0059 0.00597887 29.9922L15.0932 4.21496C15.101 4.20159 15.1155 4.19336 15.1309 4.19336H45.0345C45.0501 4.19336 45.0645 4.20166 45.0724 4.21514L59.9941 29.9925C60.002 30.0059 60.002 30.0227 59.9941 30.0362L45.0724 55.7845C45.0645 55.798 45.0501 55.8063 45.0345 55.8063H15.1309C15.1155 55.8063 15.101 55.7981 15.0932 55.7848L0.00598954 30.0364ZM43.9005 29.9998C43.9005 37.6742 37.6791 43.8956 30.0047 43.8956C22.3303 43.8956 16.109 37.6742 16.109 29.9998C16.109 22.3253 22.3303 16.1041 30.0047 16.1041C37.6791 16.1041 43.9005 22.3253 43.9005 29.9998Z"
        fill="currentColor" />
</svg>