<svg width="60" height="60" viewBox="0 0 60 60" fill="none" xmlns="http://www.w3.org/2000/svg">
    <path fill-rule="evenodd" clip-rule="evenodd"
        d="M49.4638 40.6091C49.4638 51.3184 40.7495 60 29.9997 60C19.25 60 10.5356 51.3184 10.5356 40.6091C10.5356 30.1934 28.9469 1.58772 29.9566 0.0266977C29.9797 -0.00889944 30.0199 -0.00889913 30.0428 0.026698C31.0526 1.58772 49.4638 30.1934 49.4638 40.6091ZM26.7551 53.7834C16.8781 51.6222 18.5683 40.6811 18.5683 40.6811C18.5683 40.6811 21.2653 47.2859 27.8104 49.4253C34.3554 51.5647 42.265 48.427 42.265 48.427C42.265 48.427 36.6321 55.9444 26.7551 53.7834Z"
        fill="currentColor" />
</svg>